<svg xmlns="http://www.w3.org/2000/svg" xmlns:xlink="http://www.w3.org/1999/xlink" width="500" zoomAndPan="magnify" viewBox="0 0 375 374.999991" height="500" preserveAspectRatio="xMidYMid meet" version="1.2"><defs><clipPath id="f18e382769"><path d="M 8.4375 15 L 366.9375 15 L 366.9375 181 L 8.4375 181 Z M 8.4375 15 "/></clipPath><clipPath id="2e6485c750"><path d="M 8.4375 213 L 366.9375 213 L 366.9375 375 L 8.4375 375 Z M 8.4375 213 "/></clipPath><clipPath id="48265f77d9"><path d="M 70.933594 64.085938 L 136 64.085938 L 136 94 L 70.933594 94 Z M 70.933594 64.085938 "/></clipPath><clipPath id="ec9125e2c2"><path d="M 70.933594 100 L 136 100 L 136 129.335938 L 70.933594 129.335938 Z M 70.933594 100 "/></clipPath></defs><g id="292fa1571e"><path style=" stroke:none;fill-rule:nonzero;fill:#ea2a2a;fill-opacity:1;" d="M 365.957031 180.230469 L 260.742188 180.230469 C 253.71875 146.207031 223.589844 120.632812 187.484375 120.632812 C 151.378906 120.632812 121.25 146.207031 114.226562 180.230469 L 9.011719 180.230469 C 16.730469 88.429688 93.6875 16.328125 187.484375 16.328125 C 281.285156 16.328125 358.238281 88.429688 365.957031 180.230469 Z M 365.957031 180.230469 "/><g clip-rule="nonzero" clip-path="url(#f18e382769)"><path style=" stroke:none;fill-rule:nonzero;fill:#ea2a2a;fill-opacity:1;" d="M 366.453125 180.6875 L 260.371094 180.6875 L 260.296875 180.324219 C 253.210938 146 222.589844 121.085938 187.484375 121.085938 C 152.378906 121.085938 121.761719 146 114.675781 180.324219 L 114.597656 180.6875 L 8.515625 180.6875 L 8.558594 180.195312 C 12.316406 135.503906 32.59375 94.070312 65.660156 63.519531 C 67.707031 61.625 69.800781 59.78125 71.9375 57.988281 C 74.074219 56.191406 76.25 54.449219 78.464844 52.753906 C 80.683594 51.058594 82.9375 49.417969 85.230469 47.832031 C 87.523438 46.242188 89.855469 44.707031 92.21875 43.226562 C 94.582031 41.746094 96.980469 40.324219 99.414062 38.953125 C 101.84375 37.585938 104.304688 36.273438 106.796875 35.023438 C 109.292969 33.769531 111.8125 32.574219 114.359375 31.4375 C 116.90625 30.300781 119.480469 29.226562 122.078125 28.207031 C 124.675781 27.191406 127.296875 26.238281 129.941406 25.34375 C 132.582031 24.449219 135.246094 23.617188 137.925781 22.847656 C 140.609375 22.078125 143.308594 21.371094 146.019531 20.726562 C 148.734375 20.082031 151.464844 19.5 154.207031 18.984375 C 156.945312 18.46875 159.699219 18.015625 162.460938 17.625 C 165.222656 17.238281 167.996094 16.914062 170.773438 16.652344 C 173.550781 16.394531 176.332031 16.199219 179.121094 16.066406 C 181.90625 15.9375 184.695312 15.875 187.484375 15.875 C 190.273438 15.875 193.0625 15.9375 195.851562 16.066406 C 198.636719 16.199219 201.417969 16.394531 204.195312 16.652344 C 206.976562 16.914062 209.746094 17.238281 212.507812 17.625 C 215.269531 18.015625 218.023438 18.46875 220.765625 18.984375 C 223.503906 19.5 226.234375 20.082031 228.949219 20.726562 C 231.664062 21.371094 234.359375 22.078125 237.042969 22.847656 C 239.722656 23.617188 242.386719 24.449219 245.027344 25.34375 C 247.671875 26.238281 250.292969 27.191406 252.890625 28.207031 C 255.488281 29.226562 258.0625 30.300781 260.609375 31.4375 C 263.160156 32.574219 265.679688 33.769531 268.171875 35.023438 C 270.664062 36.273438 273.125 37.585938 275.554688 38.953125 C 277.988281 40.324219 280.386719 41.746094 282.75 43.226562 C 285.117188 44.707031 287.445312 46.242188 289.738281 47.832031 C 292.03125 49.417969 294.285156 51.058594 296.503906 52.753906 C 298.722656 54.449219 300.898438 56.191406 303.03125 57.988281 C 305.167969 59.78125 307.261719 61.625 309.308594 63.519531 C 342.375 94.070312 362.652344 135.503906 366.410156 180.195312 Z M 261.113281 179.777344 L 365.460938 179.777344 C 357.519531 88.335938 279.4375 16.785156 187.484375 16.785156 C 95.53125 16.785156 17.453125 88.335938 9.511719 179.777344 L 113.855469 179.777344 C 114.300781 177.6875 114.835938 175.621094 115.453125 173.578125 C 116.074219 171.535156 116.78125 169.519531 117.574219 167.539062 C 118.367188 165.554688 119.242188 163.609375 120.199219 161.699219 C 121.15625 159.789062 122.195312 157.925781 123.308594 156.105469 C 124.425781 154.285156 125.617188 152.515625 126.886719 150.792969 C 128.152344 149.074219 129.492188 147.414062 130.898438 145.808594 C 132.308594 144.203125 133.78125 142.660156 135.320312 141.179688 C 136.863281 139.699219 138.460938 138.289062 140.121094 136.945312 C 141.78125 135.601562 143.496094 134.332031 145.265625 133.132812 C 147.03125 131.933594 148.847656 130.8125 150.710938 129.769531 C 152.574219 128.726562 154.480469 127.765625 156.425781 126.882812 C 158.371094 126.003906 160.351562 125.207031 162.363281 124.492188 C 164.375 123.78125 166.417969 123.15625 168.484375 122.617188 C 170.550781 122.078125 172.636719 121.625 174.738281 121.265625 C 176.84375 120.902344 178.960938 120.632812 181.089844 120.449219 C 183.21875 120.269531 185.347656 120.179688 187.484375 120.179688 C 189.621094 120.179688 191.753906 120.269531 193.878906 120.449219 C 196.007812 120.632812 198.125 120.902344 200.230469 121.265625 C 202.335938 121.625 204.421875 122.078125 206.488281 122.617188 C 208.554688 123.15625 210.59375 123.78125 212.605469 124.492188 C 214.621094 125.207031 216.597656 126.003906 218.542969 126.882812 C 220.488281 127.765625 222.394531 128.726562 224.257812 129.769531 C 226.121094 130.8125 227.9375 131.933594 229.707031 133.132812 C 231.472656 134.332031 233.1875 135.601562 234.847656 136.945312 C 236.507812 138.289062 238.109375 139.699219 239.648438 141.179688 C 241.1875 142.660156 242.660156 144.203125 244.070312 145.808594 C 245.480469 147.414062 246.816406 149.074219 248.082031 150.792969 C 249.351562 152.515625 250.542969 154.285156 251.660156 156.105469 C 252.777344 157.925781 253.8125 159.789062 254.769531 161.699219 C 255.726562 163.609375 256.601562 165.554688 257.394531 167.539062 C 258.1875 169.519531 258.894531 171.535156 259.515625 173.578125 C 260.136719 175.621094 260.667969 177.6875 261.113281 179.777344 Z M 261.113281 179.777344 "/></g><path style=" stroke:none;fill-rule:nonzero;fill:#ea2a2a;fill-opacity:1;" d="M 365.671875 213.683594 C 356.53125 304.03125 280.242188 374.542969 187.484375 374.542969 C 94.726562 374.542969 18.4375 304.03125 9.296875 213.683594 L 114.921875 213.683594 C 123.066406 246.175781 152.464844 270.242188 187.484375 270.242188 C 222.503906 270.242188 251.902344 246.175781 260.046875 213.683594 Z M 365.671875 213.683594 "/><g clip-rule="nonzero" clip-path="url(#2e6485c750)"><path style=" stroke:none;fill-rule:nonzero;fill:#ea2a2a;fill-opacity:1;" d="M 187.484375 375 C 184.738281 375 181.992188 374.9375 179.246094 374.8125 C 176.5 374.683594 173.761719 374.496094 171.023438 374.242188 C 168.289062 373.992188 165.558594 373.675781 162.835938 373.300781 C 160.117188 372.921875 157.402344 372.484375 154.703125 371.980469 C 152 371.480469 149.3125 370.917969 146.636719 370.292969 C 143.960938 369.667969 141.300781 368.980469 138.65625 368.234375 C 136.011719 367.484375 133.386719 366.679688 130.777344 365.808594 C 128.171875 364.941406 125.585938 364.015625 123.019531 363.027344 C 120.457031 362.042969 117.917969 360.996094 115.398438 359.894531 C 112.882812 358.792969 110.394531 357.632812 107.929688 356.414062 C 105.464844 355.195312 103.03125 353.925781 100.625 352.59375 C 98.222656 351.265625 95.847656 349.882812 93.507812 348.445312 C 91.164062 347.007812 88.859375 345.515625 86.585938 343.972656 C 84.3125 342.425781 82.074219 340.832031 79.875 339.183594 C 77.675781 337.539062 75.515625 335.84375 73.394531 334.097656 C 71.273438 332.351562 69.191406 330.558594 67.152344 328.714844 C 65.113281 326.875 63.117188 324.988281 61.164062 323.054688 C 59.210938 321.121094 57.300781 319.144531 55.441406 317.125 C 53.578125 315.105469 51.761719 313.042969 49.996094 310.9375 C 48.226562 308.835938 46.507812 306.691406 44.839844 304.507812 C 43.171875 302.328125 41.550781 300.105469 39.984375 297.847656 C 38.417969 295.59375 36.902344 293.300781 35.441406 290.972656 C 33.980469 288.648438 32.570312 286.289062 31.21875 283.898438 C 29.863281 281.507812 28.566406 279.085938 27.320312 276.636719 C 26.078125 274.183594 24.894531 271.707031 23.765625 269.203125 C 22.636719 266.695312 21.566406 264.167969 20.550781 261.613281 C 19.539062 259.058594 18.585938 256.480469 17.691406 253.882812 C 16.796875 251.285156 15.960938 248.667969 15.1875 246.03125 C 14.414062 243.394531 13.699219 240.742188 13.046875 238.074219 C 12.394531 235.40625 11.800781 232.722656 11.273438 230.027344 C 10.742188 227.328125 10.277344 224.621094 9.871094 221.90625 C 9.464844 219.1875 9.121094 216.460938 8.84375 213.726562 L 8.792969 213.226562 L 115.28125 213.226562 L 115.367188 213.570312 C 115.867188 215.5625 116.449219 217.527344 117.113281 219.472656 C 117.777344 221.414062 118.519531 223.324219 119.34375 225.207031 C 120.164062 227.085938 121.0625 228.929688 122.039062 230.738281 C 123.011719 232.542969 124.0625 234.308594 125.183594 236.027344 C 126.304688 237.746094 127.492188 239.417969 128.753906 241.039062 C 130.011719 242.660156 131.335938 244.226562 132.726562 245.738281 C 134.113281 247.25 135.5625 248.699219 137.074219 250.09375 C 138.582031 251.484375 140.144531 252.808594 141.765625 254.074219 C 143.382812 255.335938 145.050781 256.527344 146.769531 257.652344 C 148.488281 258.773438 150.25 259.824219 152.054688 260.804688 C 153.859375 261.78125 155.703125 262.683594 157.582031 263.507812 C 159.460938 264.335938 161.371094 265.082031 163.3125 265.75 C 165.253906 266.414062 167.21875 267 169.210938 267.503906 C 171.199219 268.011719 173.207031 268.429688 175.230469 268.769531 C 177.253906 269.109375 179.292969 269.363281 181.335938 269.53125 C 183.382812 269.703125 185.433594 269.785156 187.484375 269.785156 C 189.539062 269.785156 191.585938 269.703125 193.632812 269.53125 C 195.679688 269.363281 197.714844 269.109375 199.738281 268.769531 C 201.761719 268.429688 203.769531 268.011719 205.761719 267.503906 C 207.75 267 209.714844 266.414062 211.65625 265.75 C 213.597656 265.082031 215.507812 264.335938 217.386719 263.507812 C 219.269531 262.683594 221.109375 261.78125 222.914062 260.804688 C 224.71875 259.824219 226.480469 258.773438 228.199219 257.652344 C 229.917969 256.527344 231.585938 255.335938 233.203125 254.074219 C 234.824219 252.808594 236.386719 251.484375 237.898438 250.09375 C 239.40625 248.699219 240.855469 247.25 242.246094 245.738281 C 243.632812 244.226562 244.957031 242.660156 246.214844 241.039062 C 247.476562 239.417969 248.667969 237.746094 249.785156 236.027344 C 250.90625 234.308594 251.957031 232.542969 252.929688 230.738281 C 253.90625 228.929688 254.804688 227.085938 255.625 225.207031 C 256.449219 223.324219 257.191406 221.414062 257.855469 219.472656 C 258.519531 217.527344 259.101562 215.5625 259.605469 213.570312 L 259.691406 213.226562 L 366.179688 213.226562 L 366.128906 213.726562 C 365.847656 216.460938 365.503906 219.1875 365.097656 221.90625 C 364.695312 224.621094 364.226562 227.328125 363.695312 230.027344 C 363.167969 232.722656 362.574219 235.40625 361.921875 238.074219 C 361.269531 240.742188 360.558594 243.394531 359.78125 246.03125 C 359.007812 248.667969 358.171875 251.285156 357.277344 253.882812 C 356.382812 256.480469 355.429688 259.058594 354.417969 261.613281 C 353.40625 264.167969 352.335938 266.695312 351.207031 269.203125 C 350.078125 271.707031 348.890625 274.183594 347.648438 276.636719 C 346.40625 279.085938 345.105469 281.507812 343.753906 283.898438 C 342.398438 286.289062 340.992188 288.648438 339.527344 290.972656 C 338.066406 293.300781 336.550781 295.59375 334.984375 297.847656 C 333.417969 300.105469 331.800781 302.324219 330.128906 304.507812 C 328.460938 306.691406 326.742188 308.835938 324.976562 310.9375 C 323.207031 313.042969 321.390625 315.105469 319.53125 317.125 C 317.667969 319.144531 315.761719 321.121094 313.808594 323.054688 C 311.855469 324.988281 309.859375 326.875 307.816406 328.714844 C 305.777344 330.558594 303.699219 332.351562 301.574219 334.097656 C 299.453125 335.84375 297.292969 337.539062 295.09375 339.183594 C 292.894531 340.832031 290.65625 342.425781 288.382812 343.972656 C 286.109375 345.515625 283.804688 347.007812 281.460938 348.445312 C 279.121094 349.882812 276.746094 351.265625 274.34375 352.59375 C 271.9375 353.921875 269.503906 355.195312 267.039062 356.414062 C 264.578125 357.632812 262.085938 358.792969 259.570312 359.894531 C 257.054688 360.996094 254.511719 362.042969 251.949219 363.027344 C 249.382812 364.015625 246.796875 364.941406 244.191406 365.808594 C 241.582031 366.679688 238.957031 367.484375 236.3125 368.234375 C 233.667969 368.980469 231.007812 369.667969 228.332031 370.292969 C 225.65625 370.917969 222.96875 371.480469 220.265625 371.980469 C 217.566406 372.484375 214.855469 372.921875 212.132812 373.300781 C 209.410156 373.675781 206.679688 373.992188 203.945312 374.242188 C 201.210938 374.496094 198.46875 374.683594 195.722656 374.8125 C 192.980469 374.9375 190.234375 375 187.484375 375 Z M 9.800781 214.136719 C 19.285156 305.359375 95.582031 374.085938 187.484375 374.085938 C 279.386719 374.085938 355.6875 305.359375 365.167969 214.136719 L 260.402344 214.136719 C 259.375 218.101562 258.039062 221.957031 256.386719 225.703125 C 254.738281 229.449219 252.796875 233.035156 250.5625 236.46875 C 248.328125 239.898438 245.835938 243.128906 243.078125 246.152344 C 240.320312 249.179688 237.335938 251.964844 234.128906 254.503906 C 232.480469 255.804688 230.785156 257.035156 229.035156 258.191406 C 227.289062 259.347656 225.492188 260.429688 223.652344 261.4375 C 221.816406 262.445312 219.9375 263.375 218.019531 264.226562 C 216.101562 265.078125 214.152344 265.847656 212.171875 266.535156 C 210.191406 267.222656 208.183594 267.828125 206.152344 268.347656 C 204.121094 268.867188 202.070312 269.300781 200.003906 269.648438 C 197.9375 270 195.855469 270.261719 193.765625 270.4375 C 191.675781 270.609375 189.582031 270.699219 187.484375 270.699219 C 185.390625 270.699219 183.296875 270.609375 181.207031 270.4375 C 179.117188 270.261719 177.035156 270 174.96875 269.648438 C 172.902344 269.300781 170.851562 268.867188 168.820312 268.347656 C 166.789062 267.828125 164.78125 267.222656 162.800781 266.535156 C 160.820312 265.847656 158.871094 265.078125 156.953125 264.226562 C 155.035156 263.375 153.15625 262.445312 151.320312 261.4375 C 149.480469 260.429688 147.683594 259.347656 145.9375 258.191406 C 144.1875 257.035156 142.492188 255.804688 140.84375 254.503906 C 137.636719 251.964844 134.652344 249.179688 131.894531 246.152344 C 129.136719 243.128906 126.644531 239.898438 124.410156 236.46875 C 122.175781 233.035156 120.234375 229.449219 118.585938 225.703125 C 116.933594 221.957031 115.597656 218.101562 114.570312 214.136719 Z M 9.800781 214.136719 "/></g><path style=" stroke:none;fill-rule:nonzero;fill:#ea2a2a;fill-opacity:1;" d="M 228.234375 195.4375 C 228.230469 196.269531 228.207031 197.105469 228.152344 197.9375 C 228.101562 198.769531 228.023438 199.601562 227.921875 200.429688 C 227.816406 201.257812 227.6875 202.082031 227.535156 202.902344 C 227.382812 203.71875 227.203125 204.535156 227 205.34375 C 226.796875 206.152344 226.566406 206.957031 226.3125 207.75 C 226.0625 208.546875 225.785156 209.332031 225.484375 210.109375 C 225.179688 210.886719 224.855469 211.65625 224.507812 212.414062 C 224.160156 213.171875 223.785156 213.917969 223.390625 214.652344 C 222.996094 215.390625 222.582031 216.113281 222.140625 216.820312 C 221.703125 217.53125 221.242188 218.226562 220.761719 218.90625 C 220.277344 219.589844 219.777344 220.253906 219.253906 220.90625 C 218.730469 221.554688 218.191406 222.1875 217.628906 222.804688 C 217.066406 223.421875 216.484375 224.023438 215.886719 224.601562 C 215.289062 225.183594 214.671875 225.746094 214.039062 226.289062 C 213.40625 226.835938 212.757812 227.359375 212.09375 227.863281 C 211.425781 228.363281 210.746094 228.847656 210.050781 229.308594 C 209.359375 229.769531 208.648438 230.210938 207.925781 230.628906 C 207.207031 231.046875 206.472656 231.441406 205.726562 231.816406 C 204.980469 232.191406 204.222656 232.539062 203.453125 232.867188 C 202.6875 233.191406 201.910156 233.496094 201.121094 233.773438 C 200.335938 234.050781 199.542969 234.308594 198.738281 234.535156 C 197.9375 234.765625 197.128906 234.972656 196.316406 235.152344 C 195.5 235.332031 194.679688 235.488281 193.855469 235.617188 C 193.03125 235.746094 192.203125 235.851562 191.375 235.929688 C 190.542969 236.007812 189.710938 236.0625 188.878906 236.089844 C 188.042969 236.117188 187.210938 236.121094 186.375 236.097656 C 185.542969 236.074219 184.707031 236.023438 183.878906 235.949219 C 183.046875 235.875 182.21875 235.773438 181.394531 235.648438 C 180.570312 235.523438 179.75 235.375 178.933594 235.199219 C 178.117188 235.019531 177.308594 234.820312 176.503906 234.59375 C 175.703125 234.367188 174.90625 234.117188 174.117188 233.84375 C 173.332031 233.570312 172.550781 233.269531 171.78125 232.949219 C 171.011719 232.625 170.253906 232.28125 169.503906 231.910156 C 168.757812 231.542969 168.019531 231.148438 167.296875 230.734375 C 166.574219 230.320312 165.863281 229.882812 165.164062 229.425781 C 164.46875 228.96875 163.785156 228.488281 163.117188 227.988281 C 162.449219 227.488281 161.796875 226.96875 161.160156 226.429688 C 160.527344 225.886719 159.90625 225.328125 159.304688 224.75 C 158.703125 224.171875 158.121094 223.574219 157.554688 222.960938 C 156.992188 222.347656 156.445312 221.71875 155.917969 221.070312 C 155.394531 220.421875 154.886719 219.757812 154.402344 219.078125 C 153.917969 218.402344 153.453125 217.707031 153.011719 217 C 152.566406 216.292969 152.148438 215.574219 151.75 214.839844 C 151.351562 214.105469 150.976562 213.363281 150.621094 212.605469 C 150.269531 211.851562 149.941406 211.082031 149.636719 210.308594 C 149.328125 209.53125 149.046875 208.746094 148.792969 207.953125 C 148.535156 207.160156 148.300781 206.359375 148.09375 205.550781 C 147.886719 204.742188 147.703125 203.929688 147.542969 203.109375 C 147.386719 202.289062 147.253906 201.464844 147.148438 200.636719 C 147.039062 199.8125 146.957031 198.980469 146.902344 198.148438 C 146.84375 197.316406 146.8125 196.484375 146.808594 195.648438 C 146.804688 194.8125 146.824219 193.980469 146.871094 193.148438 C 146.917969 192.3125 146.988281 191.484375 147.085938 190.65625 C 147.183594 189.824219 147.304688 189 147.453125 188.179688 C 147.601562 187.359375 147.773438 186.542969 147.972656 185.734375 C 148.171875 184.921875 148.394531 184.117188 148.640625 183.320312 C 148.890625 182.523438 149.160156 181.734375 149.457031 180.957031 C 149.753906 180.175781 150.074219 179.40625 150.417969 178.644531 C 150.757812 177.886719 151.125 177.136719 151.515625 176.398438 C 151.90625 175.660156 152.316406 174.933594 152.75 174.222656 C 153.183594 173.507812 153.640625 172.8125 154.117188 172.125 C 154.59375 171.441406 155.09375 170.773438 155.609375 170.117188 C 156.128906 169.464844 156.664062 168.828125 157.222656 168.207031 C 157.78125 167.585938 158.355469 166.980469 158.949219 166.398438 C 159.546875 165.8125 160.15625 165.246094 160.785156 164.695312 C 161.414062 164.148438 162.0625 163.621094 162.722656 163.113281 C 163.382812 162.605469 164.0625 162.117188 164.753906 161.648438 C 165.445312 161.183594 166.148438 160.738281 166.871094 160.316406 C 167.589844 159.890625 168.320312 159.492188 169.0625 159.113281 C 169.808594 158.734375 170.5625 158.378906 171.328125 158.046875 C 172.09375 157.714844 172.867188 157.40625 173.652344 157.125 C 174.4375 156.839844 175.230469 156.578125 176.03125 156.34375 C 176.832031 156.109375 177.636719 155.898438 178.449219 155.710938 C 179.265625 155.527344 180.082031 155.367188 180.90625 155.230469 C 181.730469 155.09375 182.554688 154.984375 183.386719 154.898438 C 184.214844 154.816406 185.046875 154.753906 185.882812 154.722656 C 186.714844 154.6875 187.546875 154.679688 188.382812 154.699219 C 189.21875 154.714844 190.050781 154.757812 190.882812 154.828125 C 191.714844 154.898438 192.542969 154.992188 193.367188 155.109375 C 194.191406 155.230469 195.015625 155.375 195.832031 155.546875 C 196.648438 155.714844 197.457031 155.910156 198.261719 156.132812 C 199.066406 156.351562 199.867188 156.597656 200.65625 156.867188 C 201.445312 157.136719 202.226562 157.429688 202.996094 157.746094 C 203.769531 158.0625 204.53125 158.402344 205.28125 158.765625 C 206.03125 159.132812 206.769531 159.519531 207.496094 159.925781 C 208.226562 160.335938 208.9375 160.769531 209.640625 161.222656 C 210.339844 161.675781 211.027344 162.148438 211.695312 162.644531 C 212.367188 163.140625 213.023438 163.65625 213.664062 164.191406 C 214.304688 164.726562 214.925781 165.28125 215.53125 165.855469 C 216.136719 166.429688 216.722656 167.023438 217.292969 167.632812 C 217.863281 168.242188 218.410156 168.871094 218.941406 169.515625 C 219.472656 170.15625 219.984375 170.816406 220.472656 171.492188 C 220.964844 172.167969 221.433594 172.859375 221.878906 173.5625 C 222.328125 174.265625 222.753906 174.984375 223.15625 175.714844 C 223.558594 176.445312 223.941406 177.1875 224.296875 177.941406 C 224.65625 178.695312 224.988281 179.457031 225.300781 180.230469 C 227.265625 185.109375 228.242188 190.179688 228.234375 195.4375 Z M 228.234375 195.4375 "/><path style=" stroke:none;fill-rule:nonzero;fill:#ea2a2a;fill-opacity:1;" d="M 187.484375 236.640625 C 186.667969 236.640625 185.847656 236.617188 185.03125 236.566406 C 184.214844 236.515625 183.398438 236.445312 182.585938 236.347656 C 181.773438 236.25 180.964844 236.125 180.160156 235.980469 C 179.355469 235.835938 178.554688 235.664062 177.757812 235.472656 C 176.964844 235.277344 176.175781 235.0625 175.390625 234.820312 C 174.609375 234.578125 173.835938 234.316406 173.070312 234.027344 C 172.300781 233.742188 171.542969 233.433594 170.796875 233.101562 C 170.046875 232.769531 169.308594 232.414062 168.582031 232.039062 C 167.855469 231.664062 167.140625 231.265625 166.4375 230.847656 C 165.734375 230.429688 165.042969 229.988281 164.367188 229.53125 C 163.6875 229.070312 163.027344 228.589844 162.378906 228.089844 C 161.730469 227.59375 161.097656 227.074219 160.476562 226.535156 C 159.859375 226 159.257812 225.445312 158.675781 224.871094 C 158.089844 224.300781 157.523438 223.710938 156.972656 223.101562 C 156.421875 222.496094 155.894531 221.875 155.378906 221.234375 C 154.867188 220.597656 154.375 219.945312 153.902344 219.277344 C 153.429688 218.609375 152.976562 217.925781 152.542969 217.230469 C 152.109375 216.539062 151.699219 215.832031 151.308594 215.113281 C 150.917969 214.390625 150.546875 213.660156 150.199219 212.921875 C 149.851562 212.179688 149.527344 211.429688 149.226562 210.667969 C 148.921875 209.90625 148.644531 209.136719 148.386719 208.359375 C 148.128906 207.582031 147.898438 206.800781 147.6875 206.007812 C 147.476562 205.21875 147.292969 204.421875 147.128906 203.617188 C 146.96875 202.816406 146.828125 202.007812 146.714844 201.199219 C 146.601562 200.386719 146.511719 199.574219 146.445312 198.757812 C 146.378906 197.941406 146.335938 197.125 146.320312 196.308594 C 146.304688 195.488281 146.3125 194.671875 146.34375 193.851562 C 146.375 193.035156 146.429688 192.21875 146.511719 191.40625 C 146.589844 190.589844 146.695312 189.777344 146.824219 188.96875 C 146.953125 188.160156 147.105469 187.359375 147.285156 186.558594 C 147.460938 185.757812 147.660156 184.964844 147.882812 184.179688 C 148.109375 183.390625 148.355469 182.613281 148.625 181.839844 C 148.898438 181.066406 149.191406 180.300781 149.507812 179.546875 C 149.820312 178.792969 150.160156 178.046875 150.519531 177.3125 C 150.882812 176.578125 151.261719 175.855469 151.667969 175.140625 C 152.070312 174.429688 152.496094 173.730469 152.941406 173.042969 C 153.386719 172.355469 153.851562 171.683594 154.335938 171.023438 C 154.820312 170.367188 155.328125 169.722656 155.851562 169.09375 C 156.375 168.464844 156.917969 167.851562 157.476562 167.253906 C 158.035156 166.65625 158.613281 166.078125 159.210938 165.515625 C 159.804688 164.953125 160.414062 164.410156 161.042969 163.882812 C 161.671875 163.359375 162.3125 162.851562 162.96875 162.363281 C 163.628906 161.875 164.300781 161.410156 164.984375 160.960938 C 165.667969 160.515625 166.367188 160.085938 167.078125 159.679688 C 167.789062 159.277344 168.511719 158.890625 169.246094 158.527344 C 169.980469 158.164062 170.722656 157.824219 171.476562 157.507812 C 172.230469 157.1875 172.996094 156.894531 173.765625 156.621094 C 174.539062 156.347656 175.316406 156.097656 176.101562 155.871094 C 176.890625 155.644531 177.683594 155.441406 178.480469 155.261719 C 179.28125 155.082031 180.082031 154.925781 180.890625 154.796875 C 181.699219 154.664062 182.511719 154.558594 183.324219 154.472656 C 184.140625 154.390625 184.953125 154.332031 185.773438 154.296875 C 186.589844 154.265625 187.410156 154.253906 188.226562 154.269531 C 189.046875 154.28125 189.863281 154.320312 190.679688 154.386719 C 191.496094 154.449219 192.308594 154.535156 193.121094 154.648438 C 193.929688 154.757812 194.738281 154.894531 195.539062 155.054688 C 196.34375 155.214844 197.140625 155.398438 197.933594 155.605469 C 198.722656 155.8125 199.507812 156.042969 200.285156 156.296875 C 201.066406 156.550781 201.835938 156.828125 202.597656 157.128906 C 203.359375 157.429688 204.109375 157.75 204.851562 158.09375 C 205.59375 158.441406 206.324219 158.804688 207.046875 159.195312 C 207.765625 159.582031 208.476562 159.992188 209.171875 160.421875 C 209.867188 160.855469 210.550781 161.304688 211.21875 161.777344 C 211.890625 162.246094 212.542969 162.738281 213.183594 163.25 C 213.824219 163.757812 214.449219 164.289062 215.054688 164.835938 C 215.664062 165.382812 216.253906 165.949219 216.832031 166.53125 C 217.40625 167.113281 217.960938 167.714844 218.5 168.332031 C 219.039062 168.945312 219.558594 169.578125 220.0625 170.226562 C 220.5625 170.871094 221.042969 171.535156 221.507812 172.210938 C 221.96875 172.886719 222.410156 173.574219 222.832031 174.277344 C 223.25 174.976562 223.652344 175.691406 224.027344 176.417969 C 224.40625 177.144531 224.761719 177.878906 225.097656 178.628906 C 225.433594 179.375 225.742188 180.132812 226.03125 180.898438 C 226.324219 181.664062 226.589844 182.4375 226.832031 183.21875 C 227.074219 184 227.292969 184.789062 227.492188 185.582031 C 227.6875 186.375 227.859375 187.175781 228.007812 187.980469 C 228.15625 188.785156 228.28125 189.59375 228.378906 190.40625 C 228.480469 191.21875 228.554688 192.035156 228.609375 192.851562 C 228.660156 193.667969 228.6875 194.484375 228.691406 195.304688 C 228.691406 196.125 228.671875 196.941406 228.625 197.757812 C 228.578125 198.574219 228.507812 199.390625 228.414062 200.203125 C 228.320312 201.015625 228.203125 201.828125 228.058594 202.632812 C 227.917969 203.4375 227.75 204.238281 227.558594 205.035156 C 227.367188 205.832031 227.15625 206.621094 226.917969 207.40625 C 226.679688 208.1875 226.417969 208.964844 226.136719 209.730469 C 225.851562 210.5 225.546875 211.257812 225.214844 212.007812 C 224.886719 212.757812 224.535156 213.496094 224.164062 214.222656 C 223.789062 214.953125 223.394531 215.667969 222.980469 216.375 C 222.5625 217.078125 222.128906 217.773438 221.671875 218.449219 C 221.214844 219.128906 220.738281 219.796875 220.238281 220.445312 C 219.742188 221.097656 219.226562 221.730469 218.691406 222.351562 C 218.160156 222.972656 217.605469 223.574219 217.035156 224.160156 C 216.464844 224.75 215.878906 225.316406 215.273438 225.871094 C 214.667969 226.421875 214.046875 226.953125 213.410156 227.46875 C 212.773438 227.984375 212.125 228.480469 211.457031 228.957031 C 210.792969 229.433594 210.113281 229.886719 209.421875 230.324219 C 206.136719 232.390625 202.628906 233.960938 198.898438 235.035156 C 195.171875 236.109375 191.367188 236.644531 187.484375 236.640625 Z M 187.484375 155.144531 C 186.058594 155.144531 184.636719 155.222656 183.222656 155.375 C 181.804688 155.527344 180.398438 155.753906 179.007812 156.054688 C 177.613281 156.355469 176.238281 156.730469 174.886719 157.179688 C 173.535156 157.625 172.207031 158.144531 170.910156 158.730469 C 169.609375 159.320312 168.347656 159.976562 167.121094 160.695312 C 165.890625 161.417969 164.703125 162.203125 163.558594 163.054688 C 162.414062 163.902344 161.316406 164.808594 160.265625 165.773438 C 159.21875 166.738281 158.222656 167.753906 157.28125 168.824219 C 156.339844 169.894531 155.460938 171.011719 154.636719 172.175781 C 153.816406 173.339844 153.058594 174.546875 152.363281 175.789062 C 151.667969 177.035156 151.042969 178.3125 150.484375 179.625 C 149.925781 180.9375 149.4375 182.273438 149.019531 183.636719 C 148.605469 185 148.261719 186.378906 147.992188 187.78125 C 147.722656 189.179688 147.527344 190.589844 147.40625 192.007812 C 147.285156 193.429688 147.242188 194.851562 147.273438 196.277344 C 147.304688 197.703125 147.410156 199.121094 147.589844 200.535156 C 147.773438 201.949219 148.027344 203.347656 148.359375 204.734375 C 148.691406 206.121094 149.09375 207.484375 149.566406 208.828125 C 150.042969 210.171875 150.589844 211.488281 151.203125 212.773438 C 151.820312 214.058594 152.5 215.308594 153.246094 216.523438 C 153.996094 217.734375 154.804688 218.90625 155.675781 220.03125 C 156.550781 221.160156 157.480469 222.238281 158.464844 223.265625 C 159.453125 224.296875 160.488281 225.269531 161.578125 226.1875 C 162.667969 227.105469 163.804688 227.964844 164.984375 228.761719 C 166.167969 229.558594 167.386719 230.292969 168.644531 230.960938 C 169.90625 231.628906 171.195312 232.226562 172.519531 232.757812 C 173.839844 233.289062 175.1875 233.75 176.558594 234.136719 C 177.929688 234.527344 179.320312 234.839844 180.722656 235.082031 C 182.128906 235.320312 183.542969 235.488281 184.964844 235.578125 C 186.386719 235.667969 187.808594 235.683594 189.234375 235.621094 C 190.65625 235.5625 192.074219 235.425781 193.484375 235.214844 C 194.894531 235.003906 196.289062 234.71875 197.667969 234.359375 C 199.046875 234 200.402344 233.570312 201.734375 233.066406 C 203.070312 232.5625 204.371094 231.988281 205.644531 231.347656 C 206.917969 230.707031 208.152344 230 209.351562 229.226562 C 210.546875 228.453125 211.699219 227.617188 212.808594 226.722656 C 213.917969 225.828125 214.976562 224.875 215.984375 223.867188 C 216.992188 222.859375 217.945312 221.800781 218.839844 220.695312 C 219.734375 219.585938 220.570312 218.433594 221.34375 217.234375 C 222.113281 216.035156 222.824219 214.800781 223.464844 213.53125 C 224.105469 212.257812 224.679688 210.953125 225.183594 209.621094 C 225.683594 208.289062 226.117188 206.929688 226.476562 205.550781 C 226.835938 204.171875 227.121094 202.777344 227.332031 201.367188 C 227.542969 199.960938 227.679688 198.542969 227.738281 197.117188 C 227.800781 195.695312 227.785156 194.269531 227.695312 192.847656 C 227.605469 191.425781 227.441406 190.011719 227.199219 188.609375 C 226.957031 187.203125 226.644531 185.816406 226.257812 184.445312 C 225.867188 183.074219 225.410156 181.726562 224.878906 180.402344 C 224.136719 178.542969 223.261719 176.753906 222.25 175.023438 C 221.242188 173.296875 220.109375 171.65625 218.855469 170.097656 C 217.601562 168.539062 216.234375 167.085938 214.761719 165.730469 C 213.289062 164.375 211.726562 163.140625 210.066406 162.019531 C 208.410156 160.902344 206.679688 159.910156 204.871094 159.050781 C 203.066406 158.1875 201.207031 157.46875 199.292969 156.882812 C 197.378906 156.300781 195.433594 155.863281 193.453125 155.574219 C 191.476562 155.28125 189.484375 155.140625 187.484375 155.144531 Z M 187.484375 155.144531 "/><g clip-rule="nonzero" clip-path="url(#48265f77d9)"><path style=" stroke:none;fill-rule:nonzero;fill:#ea2a2a;fill-opacity:1;" d="M 135.9375 93.941406 L 116.777344 93.941406 C 115.496094 87.746094 110.007812 83.089844 103.433594 83.089844 C 96.859375 83.089844 91.371094 87.746094 90.09375 93.941406 L 70.933594 93.941406 C 72.335938 77.222656 86.351562 64.09375 103.433594 64.09375 C 120.515625 64.09375 134.53125 77.222656 135.9375 93.941406 Z M 135.9375 93.941406 "/></g><g clip-rule="nonzero" clip-path="url(#ec9125e2c2)"><path style=" stroke:none;fill-rule:nonzero;fill:#ea2a2a;fill-opacity:1;" d="M 135.886719 100.035156 C 134.222656 116.488281 120.328125 129.328125 103.433594 129.328125 C 86.542969 129.328125 72.648438 116.488281 70.984375 100.035156 L 90.21875 100.035156 C 91.703125 105.953125 97.058594 110.335938 103.433594 110.335938 C 109.8125 110.335938 115.164062 105.953125 116.648438 100.035156 Z M 135.886719 100.035156 "/></g><path style=" stroke:none;fill-rule:nonzero;fill:#ea2a2a;fill-opacity:1;" d="M 110.855469 96.710938 C 110.855469 97.015625 110.835938 97.320312 110.796875 97.621094 C 110.761719 97.921875 110.703125 98.222656 110.628906 98.515625 C 110.554688 98.8125 110.464844 99.101562 110.355469 99.382812 C 110.246094 99.667969 110.117188 99.941406 109.972656 100.210938 C 109.828125 100.480469 109.671875 100.738281 109.496094 100.984375 C 109.320312 101.234375 109.128906 101.472656 108.925781 101.695312 C 108.71875 101.921875 108.5 102.132812 108.269531 102.332031 C 108.039062 102.527344 107.796875 102.710938 107.542969 102.878906 C 107.289062 103.046875 107.027344 103.199219 106.757812 103.335938 C 106.484375 103.472656 106.203125 103.589844 105.917969 103.691406 C 105.632812 103.792969 105.339844 103.878906 105.042969 103.945312 C 104.746094 104.011719 104.445312 104.058594 104.140625 104.085938 C 103.839844 104.113281 103.535156 104.125 103.230469 104.117188 C 102.929688 104.109375 102.625 104.082031 102.324219 104.035156 C 102.023438 103.988281 101.726562 103.925781 101.433594 103.84375 C 101.140625 103.761719 100.855469 103.660156 100.574219 103.542969 C 100.292969 103.425781 100.023438 103.289062 99.757812 103.140625 C 99.492188 102.988281 99.238281 102.820312 98.996094 102.640625 C 98.753906 102.457031 98.523438 102.261719 98.300781 102.050781 C 98.082031 101.839844 97.878906 101.617188 97.6875 101.378906 C 97.492188 101.144531 97.316406 100.894531 97.15625 100.636719 C 96.996094 100.378906 96.847656 100.113281 96.722656 99.839844 C 96.59375 99.5625 96.480469 99.28125 96.386719 98.992188 C 96.292969 98.703125 96.21875 98.40625 96.160156 98.109375 C 96.101562 97.808594 96.0625 97.507812 96.042969 97.207031 C 96.023438 96.902344 96.019531 96.597656 96.039062 96.292969 C 96.054688 95.992188 96.089844 95.6875 96.144531 95.390625 C 96.199219 95.089844 96.269531 94.796875 96.359375 94.503906 C 96.449219 94.214844 96.558594 93.929688 96.683594 93.652344 C 96.808594 93.375 96.949219 93.109375 97.109375 92.847656 C 97.265625 92.589844 97.441406 92.339844 97.628906 92.101562 C 97.816406 91.863281 98.019531 91.636719 98.238281 91.421875 C 98.453125 91.210938 98.683594 91.011719 98.925781 90.824219 C 99.167969 90.640625 99.417969 90.46875 99.679688 90.316406 C 99.941406 90.160156 100.210938 90.023438 100.492188 89.902344 C 100.769531 89.78125 101.054688 89.679688 101.347656 89.59375 C 101.640625 89.507812 101.9375 89.4375 102.234375 89.390625 C 102.535156 89.339844 102.839844 89.308594 103.140625 89.296875 C 103.445312 89.285156 103.75 89.289062 104.054688 89.316406 C 104.355469 89.339844 104.65625 89.382812 104.953125 89.445312 C 105.253906 89.507812 105.546875 89.589844 105.832031 89.6875 C 106.121094 89.785156 106.402344 89.902344 106.675781 90.035156 C 106.949219 90.167969 107.214844 90.316406 107.46875 90.480469 C 107.722656 90.644531 107.96875 90.824219 108.203125 91.019531 C 108.433594 91.214844 108.65625 91.425781 108.863281 91.648438 C 109.070312 91.871094 109.261719 92.105469 109.441406 92.351562 C 109.621094 92.597656 109.785156 92.851562 109.929688 93.121094 C 110.078125 93.386719 110.207031 93.660156 110.320312 93.941406 C 110.679688 94.832031 110.855469 95.753906 110.855469 96.710938 Z M 110.855469 96.710938 "/></g></svg>